<svg id="Layer_1" data-name="Layer 1" xmlns="http://www.w3.org/2000/svg" width="1.7222in" height="0.4376in" viewBox="0 0 124 31.5064"><defs><style>.cls-1{fill:#781e65;stroke:#781e65;stroke-miterlimit:10;stroke-width:0.25px;}.cls-2{fill:#888389;}</style></defs><title>cd-logo</title><polygon class="cls-1" points="15.7 7.4 15.9 6 30 23.4 26.8 26.8 34.9 27.4 16.7 3.2 15.5 5.5 15.7 7.4"/><polygon class="cls-1" points="10.9 26.1 14.9 11 4.8 26.9 11.2 26.7 10.9 26.1"/><path class="cls-2" d="M43.4025,9.684a6.2933,6.2933,0,0,1,2.7164.5676,6.0854,6.0854,0,0,1,2.034,1.5334,6.8085,6.8085,0,0,1,1.2777,2.252,8.6265,8.6265,0,0,1,0,5.47,6.8085,6.8085,0,0,1-1.2777,2.252,5.97,5.97,0,0,1-2.034,1.5241,6.8861,6.8861,0,0,1-5.4327,0,5.973,5.973,0,0,1-2.0348-1.5241,6.812,6.812,0,0,1-1.2777-2.252,8.6413,8.6413,0,0,1,0-5.47,6.812,6.812,0,0,1,1.2777-2.252,6.0885,6.0885,0,0,1,2.0348-1.5334A6.2887,6.2887,0,0,1,43.4025,9.684Zm0,1.9308a3.7866,3.7866,0,0,0-1.8645.4352A3.6613,3.6613,0,0,0,40.26,13.2137a5.2558,5.2558,0,0,0-.7286,1.6566,7.6946,7.6946,0,0,0,0,3.7853,5.2449,5.2449,0,0,0,.7286,1.6559,3.6566,3.6566,0,0,0,1.2777,1.1644,4.2118,4.2118,0,0,0,3.7291,0,3.661,3.661,0,0,0,1.2769-1.1644,5.2462,5.2462,0,0,0,.7294-1.6559,7.6946,7.6946,0,0,0,0-3.7853,5.2571,5.2571,0,0,0-.7294-1.6566A3.6658,3.6658,0,0,0,45.2671,12.05,3.7867,3.7867,0,0,0,43.4025,11.6148Z"/><path class="cls-2" d="M61.4974,23.0086a4.166,4.166,0,0,1-1.24,3.3032A5.2449,5.2449,0,0,1,56.69,27.4a7.4782,7.4782,0,0,1-1.4864-.1517,4.4148,4.4148,0,0,1-1.3624-.5106,3.2825,3.2825,0,0,1-1.0313-.9466,2.8681,2.8681,0,0,1-.4921-1.4386h2.1572a1.7256,1.7256,0,0,0,.3219.7386,1.6566,1.6566,0,0,0,.5392.4443,2.0581,2.0581,0,0,0,.6908.2088,6.5685,6.5685,0,0,0,.7956.0469,2.5205,2.5205,0,0,0,1.9115-.643,2.61,2.61,0,0,0,.6053-1.8554V21.7979h-.0377a3.28,3.28,0,0,1-1.24,1.2676,3.3283,3.3283,0,0,1-1.6936.4544,4.475,4.475,0,0,1-1.997-.4066,3.8,3.8,0,0,1-1.3625-1.1167,4.6321,4.6321,0,0,1-.7855-1.6374,7.7245,7.7245,0,0,1-.2465-1.9878,5.7834,5.7834,0,0,1,.3027-1.8738,4.7709,4.7709,0,0,1,.871-1.5611,4.1674,4.1674,0,0,1,1.391-1.07,4.2361,4.2361,0,0,1,1.8645-.3974,3.7556,3.7556,0,0,1,1.7036.3881,2.6373,2.6373,0,0,1,1.1922,1.2207h.0377V13.7343h2.158Zm-4.7888-1.1923a2.2916,2.2916,0,0,0,2.0347-1.0689,3.4234,3.4234,0,0,0,.4544-1.0983,5.4842,5.4842,0,0,0,.1417-1.24,4.828,4.828,0,0,0-.1509-1.2107,3.2778,3.2778,0,0,0-.4636-1.0413,2.2528,2.2528,0,0,0-.8141-.7193,2.5483,2.5483,0,0,0-1.2022-.2649,2.2712,2.2712,0,0,0-1.2115.3026,2.4223,2.4223,0,0,0-.7948.7856,3.3792,3.3792,0,0,0-.4351,1.0982,5.7657,5.7657,0,0,0-.1325,1.2207,4.6476,4.6476,0,0,0,.151,1.183,3.2492,3.2492,0,0,0,.4644,1.0312,2.4725,2.4725,0,0,0,.7948.7386A2.2615,2.2615,0,0,0,56.7086,21.8163Z"/><path class="cls-2" d="M64.45,10.006h2.1579V12.05H64.45Zm0,3.7283h2.1579V23.52H64.45Z"/><path class="cls-2" d="M68.7084,13.7343h2.3475l2.4791,7.5144h.0378l2.3851-7.5144h2.2335L74.69,23.52H72.2666Z"/><path class="cls-2" d="M81.902,19.1855a3.7416,3.7416,0,0,0,.16,1.0982,2.6992,2.6992,0,0,0,.4837.9273,2.2927,2.2927,0,0,0,.8133.6338,2.674,2.674,0,0,0,1.1737.2365,2.5929,2.5929,0,0,0,1.5218-.4067,2.4167,2.4167,0,0,0,.8626-1.2207H88.96a4.0236,4.0236,0,0,1-.5854,1.4194,4.0791,4.0791,0,0,1-1.0042,1.05,4.3218,4.3218,0,0,1-1.3155.6431,5.2553,5.2553,0,0,1-1.5218.218,5.2005,5.2005,0,0,1-2.0456-.3782,4.22,4.22,0,0,1-1.5033-1.0605,4.4781,4.4781,0,0,1-.928-1.6273,6.5982,6.5982,0,0,1-.3127-2.0825,5.8882,5.8882,0,0,1,.3311-1.9778,5.0581,5.0581,0,0,1,.9466-1.6466,4.4373,4.4373,0,0,1,3.4534-1.5426,4.3871,4.3871,0,0,1,2.0732.4829A4.5422,4.5422,0,0,1,88.0725,15.23a5.1475,5.1475,0,0,1,.878,1.8261,5.54,5.54,0,0,1,.1417,2.13Zm5.0338-1.4194a3.46,3.46,0,0,0-.2187-.9843,2.6625,2.6625,0,0,0-.49-.8233,2.46,2.46,0,0,0-.7578-.5676,2.2267,2.2267,0,0,0-.995-.2179,2.601,2.601,0,0,0-1.0321.1987,2.3794,2.3794,0,0,0-.7948.5491,2.7469,2.7469,0,0,0-.53.8233,2.8653,2.8653,0,0,0-.2157,1.022Z"/><path class="cls-2" d="M91.46,13.7343h2.044V15.173l.0385.0377A3.6154,3.6154,0,0,1,94.83,13.933a3.4315,3.4315,0,0,1,1.7591-.4636,3.6623,3.6623,0,0,1,2.5369.8325,3.1926,3.1926,0,0,1,.9272,2.4992V23.52h-2.158V17.3687a2.6621,2.6621,0,0,0-.4913-1.6751,1.7881,1.7881,0,0,0-1.42-.5206,2.34,2.34,0,0,0-.9843.1987,2.1387,2.1387,0,0,0-.7378.5491,2.5561,2.5561,0,0,0-.4728.8233,2.93,2.93,0,0,0-.171,1.0027V23.52H91.46Z"/></svg>